<?xml version="1.0" encoding="UTF-8"?>
<svg id="Layer_2" data-name="Layer 2" xmlns="http://www.w3.org/2000/svg" viewBox="0 0 372.96 317.14">
  <g id="Layer_1-2" data-name="Layer 1">
    <g>
      <g>
        <path d="M140.01,130.33c12.35-1.74,24.2,9.21,26.01,21.59,1.82,12.49-4.74,25.08-14.21,33.41-1.75,1.54-3.65,3.02-4.81,5.04-1.47,2.54-1.6,5.61-1.99,8.52-2.18,16.18-14.31,30.59-29.87,35.5,5.33,19.32,16.28,37.06,31.16,50.49-4.46-19.18-8.74-40.22.09-57.83,8.18-16.33,25.61-25.55,38.3-38.68.96.8,1.93,1.6,2.89,2.41-2.49,13.54.51,27.62-1.78,41.2-3.27,19.37-18.13,36.32-36.9,42.11-1.17,12.25,9.83,22.24,20.88,27.64,24.1,11.79,53.06,12.08,78.26,2.89,25.2-9.2,46.64-27.38,61.82-49.49,2.55-3.71,7.86-7.83,10.69-4.33-16.06,25.17-38.75,46.71-66.37,58.04s-60.35,11.59-86.66-2.52c-6.83-3.66-13.59-8.36-21.34-8.62-6.56-.22-12.73,2.8-19.02,4.7-19.68,5.92-42.26-.24-56.72-14.71-1.75-1.75-3.14-3.93-4.92-5.62s-3.78-3.1-5.5-4.98c-4.08-4.44-7.66-9.34-10.64-14.58,14.19,1.28,28.51-.74,42.71.32s29.2,5.97,37.4,17.63c2.17,3.09,3.84,6.62,6.66,9.14s7.35,3.74,10.35,1.44c-16.42-15.29-29.5-34.15-38.05-54.9-8.99,4.33-19.53,5.35-29.19,2.84-3.36-.88-6.67-2.17-10.15-2.29-4.43-.15-8.65,1.62-12.89,2.9-10.12,3.05-21.98,3.05-30.28-3.49-3.36-2.64-5.99-6.23-9.75-8.25-3.23-1.74-7.06-2.18-10.16-4.12-7.18-4.48-7.57-15.46-3.07-22.62s12.32-11.43,19.8-15.39c-6.86-11.22-11.75-25-7.4-37.41,4.57-13.02,19.91-21.2,33.26-17.73,3.73-6.9,8.22-14.43,15.76-16.59,8.41-2.41,17.3,2.88,25.97,1.7,6.01-.82,11.17-4.64,16.97-6.39,14.04-4.23,30.57,6.55,32.38,21.1.11-.02.21-.03.32-.05ZM134.88,151.22c2.7-10.27.42-26.28-8.48-33.02-13.43-10.16-22.71,1.62-36.06,2.98-9.55.97-17.87-3.75-26.76-.76-6.02,6.44-12.45,12.08-13.66,21.34l.46,6.46c5.23-4.07,11.76-8,18.2-9.8,4.57-1.28,7.77-.05,10.66-.36,5.58-.6,8.01-5.57,18.11-4.8,7.33.56,11.48.16,18.19-1.86,6.53-1.97,14.48,5.04,16.87,10.81l2.48,9.02ZM95.88,196.21c7.74,1.75,10.54-4.52,15.49-9.01,3.55-3.22,7.9-5.98,10.96-10.04,7.22-9.58,11.04-30.8-.47-38.42-3.49-2.31-13.32-6.07-15.97-1.53,4.66,1.32,7.67,6.21,8.8,10.71,2.05,8.21,1.33,14.7-2.35,22.24-4.34,8.88-11.66,17.34-16.44,26.05ZM45.88,136.22c-5.34-.47-10.13.35-15,2.49-5.25,2.3-6.36,4.29-8.5,9.5-4.5,10.96-2.78,19.22,2.66,29.36,4.26,7.94,14.09,14.27,22.15,17.85,1.5.67,10.23,4.2,10.7,3.8-2.18-4.7-5.69-8.82-8.19-13.3-5.15-9.23-10.4-16.86-6.02-27.41.56-1.35,2.04-2.1,2.26-3.79.37-2.81-1.99-8.17-2-10.99,0-1.42,2.43-7.05,1.96-7.5ZM114.88,193.21c2.03-.13,4.34-.63,6.27-1.22,8.21-2.52,21.08-6.24,27.67-11.33,8.04-6.22,7.69-10.84,10.53-19.47,1.12-3.38,5.03-11.36,4.1-14.01-.78-2.23-7.24-7.41-9.56-8.48-3.55-1.65-8.11-2.8-12.02-2.49,1.51,12.1-3.73,21.5-8.51,31.99-2.66,5.85-4.07,9.36-8.48,14.52-3.11,3.64-7.31,6.46-10.01,10.48ZM100.88,162.22c1.46,1.63,6.65-6.04,7.22-7.28,3.21-7.07-.96-11.5-7.2-14.23s-11.16-1.78-16.96,1.07c-3.95,1.94-9.15,5.13-10.61,9.38-1.14,3.31-.56,4.99,2.04,7.07,5.35,4.29,13.56,1.39,17.51-3.51.01-.69-3.45-2.51-4.49-2.51-1.97-.01-3.39,2.35-5.5,2.01-1.79-4.71,5.91-7.62,9.31-6.86,6.98,1.56,8.81,8.52,8.69,14.86ZM70.88,144.22c-7.69.94-15.22,5.58-18.74,12.5,2.37,5.64,8.22,11.89,14.27,13.47,1.45.38,1.73.02,1.4-1.4-.43-1.84-1.65-4.1-1.89-6.12-.82-7.02,1.06-12.78,4.96-18.45ZM93.71,168.05c1.22-1.21,2.49-7.81,2.17-9.83-1.61.25-1.26,2.14-3.02,3.48-5.66,4.31-15.45,5.45-20.98.52l3.08,9.92c4.44.43,8.72.02,12.95-1.39.76-.25,5.57-2.47,5.8-2.7ZM49.87,163.22c-.06-.08-1.88-.41-1.99.5-.53,4.34.84,7.81,2.22,11.78l16.73,27.26c2.61,1.56,4.54-.61,6.77-1.33,5.53-1.79,11.46-3.96,17.21-4.29.75-3.42,2.17-6.52,4.06-9.45.68-1.05,1.64-.66.01-1.99-1.03-.84-3.36-1.73-4.72-2.28-13.01-5.21-29.92-6.7-39.32-17.71-.89-1.04-.83-2.34-.96-2.52ZM88.88,177.22c3.54-.63,8.23,4.02,11.03,2.54.97-.51,4.37-6.36,5.17-7.84.61-1.14,3.33-6.08,2.8-6.69-5.22,4.67-10.71,8.12-17.57,9.96-1.55.42-1.66-.44-1.43,2.04ZM76.38,228.22c4.67-.68,10.65.5,15.5,0l-8.67-5.83c-6.57-2.31-12.43-7.04-19.06-8.94-3.08-.88-18.27-2.32-18.27-4.73,1.4-2.26,3.4-1.16,5.45-1.54l6.54-1.95c-11.77-2-21.54-7.42-30.64-14.88-7.42,1.69-11.54,4.85-15.8,10.94-2.51,3.59-8.51,12.47-4.11,15.99l14.53,6.47c9.35,12.02,19.07,12.96,33.46,10.42,6.83-1.21,14.78-5.02,21.06-5.94ZM139.88,192.22c-10.15,2.9-21.25,8.34-31.72,9.77-9.96,1.36-20.59.18-30.3,3.7l-8.97,3.52c9.34,1.98,16.75,8.25,24.66,12.84,3.04,1.76,10.17,6.16,13,7,5.66,1.67,15.98-3.61,20.29-7.37,1.47-1.28,3.26-3.84,4.48-5.52,5.31-7.26,7.93-14.89,8.56-23.94ZM147.29,242.79c-.76,4.63-.48,9.39-.51,14.06,0,.73,1.92,4.08,2.1,3.36,2.67-11.05,9.49-22.15,16.5-31,1.21.66.32,2.97.05,4.05-1.61,6.25-6.64,14.51-9.06,20.94-.67,1.77-4.08,11.32-3.49,12.01,11.2-4.88,19.44-13.22,23.78-24.72,2.73-7.24,4.13-15,4.07-22.75-.03-3.61-.59-7.14-.89-10.71-.07-.78-1.04-6.3-.46-6.82-8.25,7.44-18.35,13-24.36,22.64-3.2,5.13-5.82,10.68-7.25,16.57-.19.79-.35,1.58-.48,2.36ZM95.88,233.22h-15c-.31,1.2,1.95,1.68,2.7,1.8,2.56.38,5.17.24,7.76.16l4.54-1.96ZM127.92,287.05s.07.02.1.02c-9.48-11.72-24.37-18.87-39.45-18.95-4.4-.02-8.78.52-13.15.92s-8.8.05-13.22.12c.96,2.69,3.95,5.49,5.84,7.64,2.2,2.51,4.55,4.9,7.05,7.11,5.06,4.47,10.76,8.25,17,10.88,12.3,5.19,26.95,5.6,38.74-.66-8.03-2.72-16.04-5.5-24.03-8.32-4.15-1.46-8.37-2.97-11.92-5.59,11.28.04,22.08,4.17,33.05,6.83Z"/>
        <path d="M189.67,293.2s-.09-.08-.14-.12c-2.36-2.42,3.15-15.13,4.28-17.78,4.97-11.7,13.47-21.95,24.28-28.69-4.15.07-8.3-1.59-11.26-4.5,15.93,2.12,31.93,4.23,48,4.04,4.47-.05,9.06-.32,13.15-2.14s7.6-5.53,7.99-9.99c.6-6.93-6.19-13.64-3.67-20.13.87-2.25,2.74-3.94,4.16-5.9s2.41-4.62,1.26-6.75c-1.84-3.43-6.93-2.46-10.58-1.12s-8.91,1.93-10.35-1.69c5.72-.26,11.38-1.93,16.31-4.84,1.92-1.13,3.86-2.62,4.46-4.77,1.22-4.39-3.64-8.24-3.95-12.78-.29-4.27,3.39-7.63,6.6-10.46,3.21-2.84,6.55-6.79,5.34-10.9-.83-2.83-3.55-4.61-6.06-6.16-9.83-6.09-20.07-13.48-23.3-24.58-2.01-6.88-1-14.26-1.93-21.36-2.13-16.24-13.94-29.28-25.18-41.19,17.15,9.17,29.1,27.41,30.66,46.8.41,5.07.17,10.27,1.67,15.13,2.75,8.91,10.78,15.06,18.71,19.97,5.07,3.14,10.94,7.08,11.08,13.04.09,3.92-2.49,7.43-5.52,9.91-3.57,2.93-8.5,6.15-7.59,10.69.44,2.21,2.24,3.86,3.34,5.83,2.68,4.78.38,11.64-4.64,13.85,4.48,2.34,6.26,8.72,3.63,13.04-.93,1.54-2.31,2.8-3.06,4.44-1.98,4.36,1.09,9.17,2.36,13.79,1.67,6.06-.07,12.95-4.42,17.49-6.62,6.92-17.38,7.58-26.92,6.76s-19.54-2.58-28.42.99c-10.48,4.22-16.84,14.87-21.11,25.34-.82,2.01-6.56,16.73-9.2,14.73Z"/>
        <path d="M297.43,63.59c-6.2-7.06-13.06-13.53-20.5-19.27-13.98-10.77-29.94-18.92-46.81-24.08-8.55-2.61-17.33-4.46-26.21-5.5-4.32-.5-8.66-.82-13.01-.93-1.29-.03-4.62.57-5.53-.46-1.23-1.4.18-3.87,1.45-4.65,1.65-1.02,3.71-.98,5.64-.87,32.83,1.79,65.13,13.7,90.84,34.2,25.71,20.49,44.62,49.54,52.29,81.51.52,2.17.5,5.21-1.66,5.75-2.24.56-3.66-2.29-4.23-4.53-5.69-22.57-16.93-43.68-32.27-61.17Z"/>
        <path d="M90.83,21.24c.16.24.28.52.34.77,1.46,5.8,1.22,12.18,4.27,17.33,1.96,3.31,5.15,5.79,8.67,7.34s7.37,2.23,11.21,2.51c.56.04,1.19.11,1.51.57.33.48.11,1.19-.33,1.58s-1.04.53-1.62.65c-5.41,1.13-11.37,1.33-15.66,4.81-3.16,2.56-4.86,6.52-5.85,10.47s-1.38,8.03-2.56,11.93c-.25.82-.97,1.64-1.77.98-.7-.57-.71-2.82-.85-3.67-.42-2.55-.73-5.12-1.26-7.65-.8-3.84-2.17-7.69-4.86-10.54-3.59-3.81-9.02-5.31-14.24-5.78-1.11-.1-2.25-.17-3.25-.65s-1.84-1.5-1.74-2.6c3.72-.48,7.46-1,11.01-2.21s6.93-3.19,9.24-6.14c4.24-5.42,4.18-12.92,6.05-19.54.07-.25.16-.52.36-.69.46-.37.98,0,1.32.54Z"/>
        <path d="M180.72,133.05c-2.21-.2-3.8-2.43-3.99-4.64s.69-4.36,1.67-6.35c4.71-9.59,12.7-16.63,18.88-25.2,6.26-8.69,11.31-18.16,13.58-28.69,1.63-7.52,1.99-15.77-1.67-22.54-4.41-8.17-13.54-12.4-22.06-16.09,10.78,0,21.72,5.63,26.82,15.13,3.33,6.21,4.04,13.54,3.41,20.56-1.4,15.42-9,29.81-19.23,41.42-3.54,4.02-7.41,7.76-10.68,12-3.27,4.24-5.97,9.09-6.72,14.4Z"/>
        <path d="M243.33,135.76c1.04,1.01,2.33,1.64,3.77,1.5,1.4-.14,2.3.51,1.42,1.63-1.11,1.43-3.69,2.51-5.29,3.27-3.96,1.88-8.37,2.82-12.75,2.69-5.62-.18-13.4-2.27-17.04-6.83,6.92-1.25,13.86,1.04,20.83-.6,1.69-.4,3.55-1.11,4.22-2.71.33-.78.31-1.66.2-2.5-.47-3.38-2.48-6.64-1.79-9.98.63.22,1.09.76,1.46,1.31,1.61,2.45,1.76,5.55,2.65,8.35.45,1.41,1.25,2.84,2.31,3.87Z"/>
        <path d="M132.85.28c.23,3.68.61,7.69,3.19,10.33,1.85,1.9,4.53,2.73,7.11,3.35.55.13,1.14.28,1.55.67s.56,1.13.15,1.52c-2.34.15-4.65.6-6.88,1.33-.62.2-1.24.43-1.74.86-.6.52-.94,1.28-1.24,2.02-.9,2.25-1.55,4.6-1.93,6.99-.09.58-.19,1.2-.57,1.65-1.78,2.1-1.98-2.4-2.13-3.17-.41-2.05-1.08-4.12-2.46-5.73-1.71-2-4.29-3.07-6.87-3.55-.63-.12-1.31-.22-1.81-.62s-.73-1.23-.27-1.69c2.5-.29,5.12-.63,7.19-2.07,3.1-2.16,4.15-6.23,4.6-9.98.07-.61.15-1.26.54-1.73s1.19-.64,1.6-.17Z"/>
        <path d="M206.42,119.25c-.09,0-.18.01-.28.02.28,0,2.05-3.41,2.36-3.83,1.02-1.4,2.15-2.71,3.39-3.92,2.34-2.28,5.03-4.37,7.9-5.91,6.04-3.25,13.19-4.38,19.9-2.85.79.18,1.61.41,2.22.96,1.15,1.03,1.16,2.81.95,4.35-.06.44-.14.89-.41,1.24-.64.85-1.93.69-2.97.47-8.83-1.79-18.64-.57-25.67,5.05-2.28,1.82-4.51,4.18-7.39,4.42Z"/>
      </g>
      <g>
        <rect x="303.05" y="165.26" width="27.57" height="6.38" rx="3.19" ry="3.19"/>
        <rect x="339.5" y="150.07" width="17.66" height="6.38" rx="3.19" ry="3.19"/>
        <rect x="321.24" y="157.73" width="27.57" height="6.38" rx="3.19" ry="3.19" transform="translate(-15.66 284.03) rotate(-45)"/>
        <path d="M362.2,164.07c-5.94,0-10.77-4.83-10.77-10.77s4.83-10.77,10.77-10.77,10.77,4.83,10.77,10.77-4.83,10.77-10.77,10.77ZM362.2,148.54c-2.63,0-4.77,2.14-4.77,4.77s2.14,4.77,4.77,4.77,4.77-2.14,4.77-4.77-2.14-4.77-4.77-4.77Z"/>
      </g>
      <g>
        <rect x="303.05" y="214.54" width="27.57" height="6.38" rx="3.19" ry="3.19"/>
        <rect x="339.5" y="229.73" width="17.66" height="6.38" rx="3.19" ry="3.19"/>
        <rect x="321.24" y="222.07" width="27.57" height="6.38" rx="3.19" ry="3.19" transform="translate(257.41 -170.92) rotate(45)"/>
        <path d="M362.2,222.11c-5.94,0-10.77,4.83-10.77,10.77s4.83,10.77,10.77,10.77,10.77-4.83,10.77-10.77-4.83-10.77-10.77-10.77ZM362.2,237.64c-2.63,0-4.77-2.14-4.77-4.77s2.14-4.77,4.77-4.77,4.77,2.14,4.77,4.77-2.14,4.77-4.77,4.77Z"/>
      </g>
      <g>
        <rect x="303.05" y="190.11" width="54.02" height="6.38" rx="3.19" ry="3.19"/>
        <path d="M362.2,202.88c-5.94,0-10.77-4.83-10.77-10.77s4.83-10.77,10.77-10.77,10.77,4.83,10.77,10.77-4.83,10.77-10.77,10.77ZM362.2,187.35c-2.63,0-4.77,2.14-4.77,4.77s2.14,4.77,4.77,4.77,4.77-2.14,4.77-4.77-2.14-4.77-4.77-4.77Z"/>
      </g>
    </g>
  </g>
</svg>